<svg width="400" height="400" xmlns="http://www.w3.org/2000/svg">
    <g>
            <path id="arc0" d="M 100 0 A 100 100 0 0 1 87 50 L 150 0 A 150 150 0 0 1 130 75 L 87 50 L 150 0"
                fill="#FB01F9"
                
                transform="translate(200,200) rotate(-105)" />
    
            <path id="arc1" d="M 100 0 A 100 100 0 0 1 87 50 L 150 0 A 150 150 0 0 1 130 75 L 87 50 L 150 0"
                fill="#FD0178"
                
                transform="translate(200,200) rotate(-75)" />
    
            <path id="arc2" d="M 100 0 A 100 100 0 0 1 87 50 L 150 0 A 150 150 0 0 1 130 75 L 87 50 L 150 0"
                fill="#FA0600"
                
                transform="translate(200,200) rotate(-45)" />
    
            <path id="arc3" d="M 100 0 A 100 100 0 0 1 87 50 L 150 0 A 150 150 0 0 1 130 75 L 87 50 L 150 0"
                fill="#FC7F01"
                
                transform="translate(200,200) rotate(-15)" />
    
            <path id="arc4" d="M 100 0 A 100 100 0 0 1 87 50 L 150 0 A 150 150 0 0 1 130 75 L 87 50 L 150 0"
                fill="#FDFD06"
                
                transform="translate(200,200) rotate(15)" />
    
            <path id="arc5" d="M 100 0 A 100 100 0 0 1 87 50 L 150 0 A 150 150 0 0 1 130 75 L 87 50 L 150 0"
                fill="#A5EC04"
                
                transform="translate(200,200) rotate(45)" />
    
            <path id="arc6" d="M 100 0 A 100 100 0 0 1 87 50 L 150 0 A 150 150 0 0 1 130 75 L 87 50 L 150 0"
                fill="#01E300"
                
                transform="translate(200,200) rotate(75)" />
    
            <path id="arc7" d="M 100 0 A 100 100 0 0 1 87 50 L 150 0 A 150 150 0 0 1 130 75 L 87 50 L 150 0"
                fill="#01E9E7"
                
                transform="translate(200,200) rotate(105)" />
    
            <path id="arc8" d="M 100 0 A 100 100 0 0 1 87 50 L 150 0 A 150 150 0 0 1 130 75 L 87 50 L 150 0"
                fill="#037AF7"
                
                transform="translate(200,200) rotate(135)" />
     
            <path id="arc9" d="M 100 0 A 100 100 0 0 1 87 50 L 150 0 A 150 150 0 0 1 130 75 L 87 50 L 150 0"
                fill="#0001FB"
                
                transform="translate(200,200) rotate(165)" />
    
            <path id="arc10" d="M 100 0 A 100 100 0 0 1 87 50 L 150 0 A 150 150 0 0 1 130 75 L 87 50 L 150 0"
                fill="#7E00F9"
                
                transform="translate(200,200) rotate(195)" />
    
            <path id="arc11" d="M 100 0 A 100 100 0 0 1 87 50 L 150 0 A 150 150 0 0 1 130 75 L 87 50 L 150 0"
                fill="#BA04FA"
                
                transform="translate(200,200) rotate(225)" />

    </g>
    <style>

    </style>
    <script>
    </script>
</svg>